# xmcd
#
# Track frame offsets: 
#        300
#        18269
#        39119
#        62403
#
# Disc length: 1057 seconds
#
# Revision: 0
# Processed by: cddbd v1.5.2PL0 Copyright (c) Steve Scherf et al.
# Submitted via: ExactAudioCopy v1.0b3
#
DISCID=22041d04
DTITLE=Lily Vakili - New Ride: Part I
DYEAR=2015
DGENRE=East Coast C&W - Legal Noise
TTITLE0=Wide Open
TTITLE1=Lake City Blues
TTITLE2=Calling on Angels
TTITLE3=Wild Pony
EXTD=
EXTT0=
EXTT1=
EXTT2=
EXTT3=
PLAYORDER=
